<svg width="136" height="124" viewBox="0 0 136 124" fill="none" xmlns="http://www.w3.org/2000/svg">
<rect x="97.4062" y="15.2645" width="39.1561" height="39.1561" rx="3" transform="rotate(16.0879 97.4062 15.2645)" fill="#DEA500"/>
<rect x="52.4883" width="59.0821" height="59.0821" rx="3" transform="rotate(8.52668 52.4883 0)" fill="#FBBC05"/>
<path fill-rule="evenodd" clip-rule="evenodd" d="M0.401108 2.74393C1.06724 1.68945 2.46207 1.37463 3.51655 2.04076L22.1678 13.823C22.9151 14.2951 23.4593 15.029 23.6939 15.8812L27.9386 31.2968H122.067C124.408 31.2968 126.108 33.524 125.49 35.7823L113.594 79.2575C113.172 80.8001 111.77 81.8698 110.171 81.8698H38.5759L32.9293 85.9155V92.8728H121.675C122.922 92.8728 123.933 93.8839 123.933 95.1312C123.933 96.3784 122.922 97.3896 121.675 97.3896H31.9615C30.0015 97.3896 28.4126 95.8007 28.4126 93.8407V85.4183C28.4126 84.274 28.9644 83.1999 29.8945 82.5334L35.2839 78.6721L24.0343 34.1315L19.4387 17.4415L1.10428 5.85937C0.0497993 5.19324 -0.265022 3.79841 0.401108 2.74393ZM29.1177 35.8135L39.6093 77.353H109.433L120.799 35.8135H29.1177Z" fill="black"/>
<path d="M38.4815 44.6845C38.156 43.0838 39.3807 41.5871 41.0142 41.5893L128.639 41.7086C130.332 41.7109 131.564 43.3155 131.13 44.952L120.203 86.0938C119.903 87.2249 118.879 88.0123 117.709 88.0123H49.4C48.1728 88.0123 47.1153 87.1482 46.8708 85.9456L38.4815 44.6845Z" fill="#FF7643"/>
<path fill-rule="evenodd" clip-rule="evenodd" d="M99.6051 66.8065C101.015 67.0178 102.329 66.0464 102.54 64.6367L106.004 41.5327L46.2618 41.5327L44.1113 55.8766C43.8999 57.2863 44.8714 58.6004 46.2811 58.8118L99.6051 66.8065Z" fill="#FE8733"/>
<circle cx="54.592" cy="112.231" r="10.7893" fill="#FF7643"/>
<circle cx="110.792" cy="112.231" r="10.7893" fill="#FF7643"/>
<path d="M57.4614 110.578C57.4614 116.537 52.6309 121.367 46.6721 121.367C40.7133 121.367 35.8828 116.537 35.8828 110.578C35.8828 104.619 40.7133 99.7888 46.6721 99.7888C52.6309 99.7888 57.4614 104.619 57.4614 110.578ZM40.8998 110.578C40.8998 113.766 43.4842 116.35 46.6721 116.35C49.8601 116.35 52.4444 113.766 52.4444 110.578C52.4444 107.39 49.8601 104.806 46.6721 104.806C43.4842 104.806 40.8998 107.39 40.8998 110.578Z" fill="black"/>
<path d="M113.435 110.578C113.435 116.537 108.605 121.367 102.646 121.367C96.687 121.367 91.8564 116.537 91.8564 110.578C91.8564 104.619 96.687 99.7888 102.646 99.7888C108.605 99.7888 113.435 104.619 113.435 110.578ZM96.8735 110.578C96.8735 113.766 99.4578 116.35 102.646 116.35C105.834 116.35 108.418 113.766 108.418 110.578C108.418 107.39 105.834 104.806 102.646 104.806C99.4578 104.806 96.8735 107.39 96.8735 110.578Z" fill="black"/>
</svg>
