<svg fill="none" height="226" viewBox="0 0 228 226" width="228" xmlns="http://www.w3.org/2000/svg"><path d="m114 151.255c21.128 0 38.255-17.127 38.255-38.255 0-21.1275-17.127-38.2549-38.255-38.2549-21.1275 0-38.2549 17.1274-38.2549 38.2549 0 21.128 17.1274 38.255 38.2549 38.255z" fill="#81cda1"/><path d="m114 73.2451c-21.9209 0-39.7549 17.834-39.7549 39.7549 0 21.922 17.834 39.756 39.7549 39.756 21.921 0 39.755-17.834 39.755-39.756 0-21.9209-17.834-39.7549-39.755-39.7549zm0 76.5109c-20.2669 0-36.7549-16.488-36.7549-36.756 0-20.2669 16.488-36.7549 36.7549-36.7549 20.267 0 36.755 16.488 36.755 36.7549 0 20.268-16.488 36.756-36.755 36.756z" fill="#3a312a"/><path d="m118.548 108.674c-5.572-2.097-7.866-3.473-7.866-5.637 0-1.834 1.377-3.6699 5.637-3.6699 4.719 0 7.734 1.5069 9.438 2.2289l1.901-7.4059c-2.163-1.049-5.113-1.968-9.504-2.163v-5.769h-6.424v6.227c-7.013 1.376-11.077 5.899-11.077 11.6679 0 6.358 4.785 9.636 11.798 11.995 4.851 1.639 6.948 3.212 6.948 5.702 0 2.623-2.557 4.064-6.292 4.064-4.261 0-8.128-1.376-10.881-2.883l-1.966 7.668c2.491 1.442 6.751 2.622 11.142 2.819v6.227h6.424v-6.686c7.538-1.31 11.668-6.292 11.668-12.126.001-5.901-3.146-9.506-10.946-12.259z" fill="#29795d"/><path d="m119.077 107.27c-4.961-1.867-6.895-3.054-6.895-4.233 0-1.889 2.592-2.17 4.138-2.17 3.994 0 6.623 1.143 8.363 1.898l.49.211c.402.17.859.157 1.25-.037.392-.193.679-.548.788-.971l1.901-7.4059c.177-.691-.157-1.412-.799-1.723-2.495-1.21-5.339-1.94-8.659-2.22v-4.362c0-.829-.671-1.5-1.5-1.5h-6.424c-.829 0-1.5.671-1.5 1.5v5.029c-6.867 1.766-11.0766 6.608-11.0766 12.8649 0 8.07 6.8506 11.409 12.8176 13.416 5.21 1.761 5.928 3.098 5.928 4.281 0 2.44-3.992 2.564-4.792 2.564-4.552 0-8.32-1.691-10.16-2.699-.407-.223-.893-.244-1.318-.061-.425.185-.741.555-.856 1.004l-1.9656 7.669c-.167.65.12 1.334.702 1.67 2.5636 1.484 6.4466 2.564 10.3936 2.922v4.825c0 .828.671 1.5 1.5 1.5h6.424c.829 0 1.5-.672 1.5-1.5v-5.463c7.131-1.688 11.668-6.819 11.668-13.349 0-6.626-3.573-10.715-11.918-13.66zm-1.507 24.309c-.719.125-1.243.748-1.243 1.478v5.187h-3.424v-4.727c0-.802-.631-1.463-1.433-1.498-3.417-.154-6.983-.959-9.46-2.104l1.209-4.718c2.338 1.056 5.832 2.216 9.888 2.216 4.734 0 7.792-2.185 7.792-5.564 0-3.895-3.83-5.726-7.97-7.124-7.554-2.541-10.776-5.703-10.776-10.573 0-5.1719 3.688-8.9829 9.866-10.1959.704-.138 1.211-.754 1.211-1.472v-4.727h3.424v4.269c0 .803.632 1.463 1.433 1.499 3.012.134 5.578.634 7.802 1.522l-1.151 4.484c-1.89-.766-4.645-1.664-8.419-1.664-5.263 0-7.138 2.6709-7.138 5.1699 0 3.441 3.831 5.156 8.867 7.051 8.254 2.914 9.945 6.442 9.945 10.843.002 5.451-3.993 9.531-10.423 10.648z" fill="#29795d"/><path d="m218.084 140.531c-1.67-.08-3.37.28-4.93 1.09l-33.56 17.48h-53.14c-11.58 0-22.92 3.27-32.7196 9.44l-7.48 4.7c-2.86 1.8-6.18 2.76-9.57 2.76h-.95v7.87c.006 0 .01-.001.016-.001v14.722c-.006 0-.01-.001-.016-.001v9.02l71.2496-2.19c6.11-.4 11.99-2.45 17.02-5.95l59.22-45.53c1.94-1.35 2.57-3.24 2.62-5.06.11-4.35-3.41-8.16-7.76-8.35z" fill="#fff2ed"/><path d="m218.155 139.033c-1.957-.097-3.927.34-5.694 1.258l-33.234 17.311h-52.773c-11.88 0-23.471 3.344-33.5176 9.669l-7.481 4.701c-2.629 1.654-5.662 2.529-8.771 2.529h-.95c-.829 0-1.5.672-1.5 1.5v7.87c.001.858.686 1.562 1.596 1.497.792-.042 1.42-.696 1.42-1.498 0-.075-.005-.148-.016-.221v-6.156c3.482-.098 6.865-1.124 9.817-2.981l7.482-4.701c9.5686-6.024 20.6066-9.209 31.9206-9.209h53.14c.241 0 .479-.059.693-.17l33.558-17.479c1.295-.672 2.731-.999 4.173-.922 3.519.153 6.416 3.273 6.326 6.81-.047 1.711-.693 2.977-2.034 3.912l-59.163 45.488c-4.794 3.337-10.417 5.302-16.209 5.682l-69.7036 2.143v-7.252c.011-.072.016-.146.016-.221 0-.802-.629-1.457-1.421-1.498-.032-.002-.065-.003-.095-.003-.829 0-1.5.672-1.5 1.5v9.021c0 .406.165.794.456 1.077.28.271.655.423 1.044.423.015 0 .031 0 .046-.001l71.3016-2.192c6.389-.418 12.537-2.567 17.837-6.257l59.163-45.489c2.061-1.435 3.189-3.597 3.262-6.253.13-5.137-4.081-9.664-9.189-9.888z" fill="#3a312a"/><path d="m181.092 159.879c-.314-.767-1.19-1.131-1.956-.818-.767.314-1.133 1.19-.819 1.957 1.16 2.828-.496 6.243-2.731 8.155-2.609 2.231-6.238 3.314-9.44 4.27-7.229 2.157-13.784 3.487-20.723 4.895-6.705 1.359-13.638 2.766-22.193 5.072-.8.216-1.273 1.039-1.058 1.839.18.669.786 1.109 1.447 1.109.129 0 .261-.017.392-.052 8.462-2.282 15.349-3.679 22.008-5.029 7.008-1.421 13.627-2.764 20.985-4.959 3.487-1.041 7.439-2.22 10.532-4.865 2.96-2.532 5.336-7.234 3.556-11.574z" fill="#3a312a"/><path d="m49.4043 160.083h-47.25v64.397h47.25z" fill="#ff7643"/><path d="m49.4043 158.582h-18.558c-.829 0-1.5.672-1.5 1.5s.671 1.5 1.5 1.5h17.058v61.397h-44.25v-61.397h13c.829 0 1.5-.672 1.5-1.5s-.671-1.5-1.5-1.5h-14.5c-.829 0-1.500003.672-1.500003 1.5v64.397c0 .828.671003 1.5 1.500003 1.5h47.25c.829 0 1.5-.672 1.5-1.5v-64.397c0-.828-.672-1.5-1.5-1.5z" fill="#3a312a"/><path d="m67.7463 160.083h-18.342v64.397h18.342c4.413 0 7.991-3.578 7.991-7.991v-48.415c0-4.414-3.578-7.991-7.991-7.991z" fill="#ffe4d9"/><path d="m75.7373 185.371c.829 0 1.5-.672 1.5-1.5v-15.798c0-5.233-4.258-9.491-9.491-9.491h-18.342c-.829 0-1.5.672-1.5 1.5v64.397c0 .828.671 1.5 1.5 1.5h18.342c5.233 0 9.491-4.258 9.491-9.491v-17.896c0-.828-.671-1.5-1.5-1.5s-1.5.672-1.5 1.5v17.896c0 3.579-2.912 6.491-6.491 6.491h-16.842v-61.397h16.842c3.579 0 6.491 2.912 6.491 6.491v15.798c0 .828.672 1.5 1.5 1.5z" fill="#3a312a"/><path d="m62.57 205.096c-3.329 0-6.028 2.699-6.028 6.028s2.699 6.028 6.028 6.028 6.028-2.699 6.028-6.028-2.699-6.028-6.028-6.028z" fill="#ff7643"/><path d="m62.57 203.597c-4.151 0-7.528 3.377-7.528 7.527s3.377 7.527 7.528 7.527 7.528-3.377 7.528-7.527-3.377-7.527-7.528-7.527zm0 12.054c-2.497 0-4.528-2.031-4.528-4.527s2.031-4.527 4.528-4.527 4.528 2.031 4.528 4.527-2.031 4.527-4.528 4.527z" fill="#3a312a"/><path d="m218.024 142.031c-1.45-.07-2.9.25-4.18.92l-4.22 2.2c.69 1.08 1.08 2.35 1.05 3.69-.04 1.71-.69 2.98-2.03 3.91l-59.17 45.49c-7.07 4.959-16.561 5.97-16.545 6.11l14.015-.43c5.78-.37 11.4-2.34 16.2-5.68l59.17-45.49c1.34-.93 1.98-2.2 2.03-3.91.09-3.54-2.8-6.66-6.32-6.81z" fill="#decaad"/><path d="m152.266 27.4089v-9.02l-71.2497 2.19c-6.11.4-11.99 2.45-17.02 5.95l-59.21998 45.53c-1.94 1.35-2.57 3.24-2.62 5.06-.11 4.35 3.41 8.16 7.76 8.35 1.66998.08 3.36998-.28 4.92998-1.09l33.56-17.48h53.1397c11.58 0 22.92-3.27 32.72-9.44l7.48-4.7c2.86-1.8 6.18-2.76 9.57-2.76h.95v-7.87c-.006 0-.01.001-.016.001v-14.722c.006 0 .011.001.016.001z" fill="#fff2ed"/><path d="m150.75 27.4081c0 .801.628 1.456 1.419 1.498.913.058 1.597-.638 1.597-1.497v-9.02c0-.406-.164-.794-.456-1.077s-.698-.441-1.09-.423l-71.3018 2.193c-6.389.418-12.536 2.568-17.836 6.258l-59.16297 45.488c-2.061 1.436-3.189001 3.597-3.262001 6.253-.13 5.136 4.080001 9.664 9.188001 9.886.17497.009.34997.013.52397.013 1.785 0 3.562-.435 5.17-1.27l33.234-17.311h52.7718c11.88 0 23.471-3.344 33.518-9.67l7.481-4.701c2.63-1.655 5.663-2.53 8.771-2.53h.95c.829 0 1.5-.671 1.5-1.5v-7.87c0-.858-.674-1.544-1.596-1.497-.792.042-1.42.696-1.42 1.498 0 .075.005.148.016.221v6.156c-3.481.098-6.865 1.124-9.817 2.982l-7.482 4.701c-9.569 6.025-20.607 9.209-31.921 9.209h-53.1398c-.241 0-.479.058-.693.169l-33.557 17.481c-1.294.672-2.737.992-4.17297.922-3.519-.154-6.416-3.274-6.326-6.811.047-1.71.693-2.976 2.034-3.912l59.16297-45.487c4.794-3.336 10.417-5.302 16.209-5.682l69.7038-2.143v7.251c-.011.073-.016.147-.016.222z" fill="#3a312a"/><path d="m105.828 40.752c-.215-.8-1.039-1.274-1.839-1.058-8.4617 2.281-15.3467 3.678-22.0057 5.028-7.008 1.421-13.628 2.764-20.987 4.96-3.487 1.041-7.4401 2.22-10.5321 4.865-2.96 2.532-5.3359 7.2331-3.5559 11.5731.238.581.798.932 1.388.932.189 0 .3819-.036.5679-.113.767-.314 1.133-1.19.819-1.957-1.16-2.829.4961-6.244 2.7311-8.155 2.61-2.232 6.2379-3.3151 9.4399-4.2701 7.23-2.158 13.7851-3.487 20.7251-4.895 6.705-1.36 13.6369-2.766 22.1907-5.072.8-.215 1.274-1.038 1.058-1.838z" fill="#3a312a"/><path d="m225.846 1.52002h-47.25v64.39698h47.25z" fill="#ff7643"/><path d="m225.846.0209961h-47.25c-.829 0-1.5.6709999-1.5 1.5000039v64.397c0 .829.671 1.5 1.5 1.5h18.558c.829 0 1.5-.671 1.5-1.5s-.671-1.5-1.5-1.5h-17.058v-61.397h44.25v61.397h-13c-.829 0-1.5.671-1.5 1.5s.671 1.5 1.5 1.5h14.5c.829 0 1.5-.671 1.5-1.5v-64.397c0-.829004-.671-1.5000039-1.5-1.5000039z" fill="#3a312a"/><path d="m160.254 1.52002c-4.413 0-7.991 3.578-7.991 7.991v48.41498c0 4.413 3.578 7.991 7.991 7.991h18.342v-64.39698z" fill="#ffe4d9"/><path d="m178.596.0209961h-18.342c-5.233 0-9.491 4.2570039-9.491 9.4910039v17.897c0 .829.671 1.5 1.5 1.5s1.5-.671 1.5-1.5v-17.898c0-3.579 2.912-6.491 6.491-6.491h16.842v61.397h-16.842c-3.579 0-6.491-2.912-6.491-6.491v-15.797c0-.829-.671-1.5-1.5-1.5s-1.5.671-1.5 1.5v15.798c0 5.233 4.258 9.491 9.491 9.491h18.342c.829 0 1.5-.671 1.5-1.5v-64.397c0-.829004-.671-1.5000039-1.5-1.5000039z" fill="#3a312a"/><path d="m165.43 8.8479c-3.329 0-6.028 2.699-6.028 6.028s2.699 6.028 6.028 6.028 6.028-2.699 6.028-6.028c-.001-3.329-2.699-6.028-6.028-6.028z" fill="#ff7643"/><path d="m165.43 7.3479c-4.151 0-7.528 3.377-7.528 7.528s3.377 7.528 7.528 7.528 7.528-3.377 7.528-7.528-3.377-7.528-7.528-7.528zm0 12.056c-2.497 0-4.528-2.031-4.528-4.528s2.031-4.528 4.528-4.528 4.528 2.031 4.528 4.528-2.032 4.528-4.528 4.528z" fill="#3a312a"/><path d="m33.066 105.244c-.974 11.564-13.024 13.389-13.024 13.389 10.347.487 12.925 14.059 12.925 14.059.221-9.677 13.321-14.202 13.321-14.202-9.814-.586-13.222-13.246-13.222-13.246z" fill="#81cda1"/><path d="m46.3771 116.994c-8.605-.516-11.833-12.025-11.864-12.141-.191-.703-.865-1.169-1.584-1.102-.725.066-1.298.642-1.359 1.367-.86 10.215-11.313 11.963-11.754 12.032-.763.116-1.313.791-1.273 1.561.04.771.657 1.385 1.427 1.421 9.028.426 11.499 12.719 11.523 12.844.137.711.759 1.217 1.472 1.217.042 0 .084-.002.126-.005.764-.064 1.357-.693 1.375-1.46.195-8.509 12.192-12.777 12.313-12.819.675-.234 1.092-.914.994-1.622-.098-.709-.682-1.25-1.396-1.293zm-13.566 10.346c-1.356-3.131-3.709-6.908-7.587-8.877 2.931-1.404 6.409-3.913 8.202-8.273 1.551 3.071 4.2 6.88 8.334 8.722-3.007 1.641-6.923 4.406-8.949 8.428z" fill="#3a312a"/><path d="m11.3673 122.225c-.689 8.179-9.21203 9.47-9.21203 9.47 7.318.344 9.14203 9.944 9.14203 9.944.156-6.844 9.422-10.045 9.422-10.045-6.941-.415-9.352-9.369-9.352-9.369z" fill="#81cda1"/><path d="m20.8093 130.098c-5.766-.346-7.972-8.187-7.994-8.266-.19-.702-.855-1.164-1.582-1.102-.726.065-1.299.643-1.36 1.368-.579 6.871-7.646 8.066-7.942 8.113-.763.116-1.313001.791-1.273001 1.561.04.771.657001 1.385 1.427001 1.421 6.035.284 7.724 8.645 7.739 8.727.135.713.759 1.22 1.473 1.22.041 0 .083-.002.125-.005.765-.063 1.358-.693 1.376-1.461.13-5.709 8.331-8.633 8.412-8.661.676-.233 1.094-.913.996-1.622-.099-.709-.683-1.25-1.397-1.293zm-9.585 6.794c-.924-1.885-2.34-3.947-4.447-5.279 1.855-1.041 3.697-2.63 4.871-4.917 1.057 1.874 2.654 3.955 4.941 5.225-1.85 1.1-3.989 2.738-5.365 4.971z" fill="#3a312a"/><path d="m11.3293 95.5669c-.657 8.1821-9.175 9.5071-9.175 9.5071 7.319.316 9.181 9.909 9.181 9.909.129-6.845 9.383-10.083 9.383-10.083-6.943-.388-9.389-9.3331-9.389-9.3331z" fill="#81cda1"/><path d="m20.8012 103.403c-5.767-.323-8.004-8.154-8.026-8.233-.193-.702-.867-1.164-1.586-1.096-.726.068-1.29703.647-1.35503 1.374-.552 6.873-7.615 8.097-7.911 8.145-.762.119-1.309996.796-1.266996 1.566s.662996 1.382 1.432996 1.415c6.036.261 7.756 8.614 7.772 8.696.138.71.76003 1.214 1.47103 1.214.044 0 .087-.002.131-.006.765-.066 1.356-.698 1.37-1.466.108-5.709 8.298-8.666 8.378-8.694.676-.236 1.09-.917.99-1.626-.098-.71-.685-1.249-1.4-1.289zm-9.558 6.832c-.931-1.882-2.35603-3.938-4.46803-5.262 1.852-1.048 3.68703-2.645 4.85203-4.936 1.064 1.87 2.67 3.944 4.961 5.205-1.845 1.108-3.978 2.756-5.345 4.993z" fill="#3a312a"/></svg>