<svg width="238" height="238" viewBox="0 0 238 238" fill="none" xmlns="http://www.w3.org/2000/svg">
<path d="M119 228.703C64.7062 228.703 20.4531 184.45 20.4531 130.156C20.4531 127.181 23.0562 124.578 26.0312 124.578C29.0063 124.578 31.6094 127.181 31.6094 130.156C31.6094 178.5 70.6562 217.547 119 217.547C167.344 217.547 206.391 178.5 206.391 130.156C206.391 81.8125 167.344 42.7656 119 42.7656C116.025 42.7656 113.422 40.1625 113.422 37.1875C113.422 34.2125 116.025 31.6094 119 31.6094C173.294 31.6094 217.547 75.8625 217.547 130.156C217.547 184.45 173.294 228.703 119 228.703Z" fill="#FF7643"/>
<path d="M130.157 65.0782C128.669 65.0782 127.182 64.7064 126.066 63.5907L103.754 41.2782C101.522 39.047 101.522 35.7001 103.754 33.4688L126.066 11.1563C128.297 8.9251 131.644 8.9251 133.875 11.1563C136.107 13.3876 136.107 16.7345 133.875 18.9657L115.654 37.1876L133.875 55.4095C136.107 57.6407 136.107 60.9876 133.875 63.2189C133.132 64.7064 131.644 65.0782 130.157 65.0782Z" fill="#FF7643"/>
<path d="M171.062 180.359H66.9375C64.7062 180.359 63.2188 178.872 63.2188 176.641V113.422H174.781V176.641C174.781 178.872 173.294 180.359 171.062 180.359Z" fill="#F8C985" stroke="#0277BD" stroke-miterlimit="10" stroke-linecap="round" stroke-linejoin="round"/>
<path d="M74.375 150.609H96.6875V165.484H74.375V150.609Z" fill="#EEEEEE" stroke="#0277BD" stroke-miterlimit="10" stroke-linecap="round" stroke-linejoin="round"/>
<path d="M59.5 83.6719V109.703C59.5 111.934 60.9875 113.422 63.2188 113.422H174.781C177.013 113.422 178.5 111.934 178.5 109.703V83.6719C178.5 81.4406 177.013 79.9531 174.781 79.9531H63.2188C60.9875 79.9531 59.5 81.4406 59.5 83.6719Z" fill="#E5A961" stroke="#0277BD" stroke-miterlimit="10" stroke-linecap="round" stroke-linejoin="round"/>
</svg>
