<svg viewBox="0 0 48 48" xmlns="http://www.w3.org/2000/svg"><path d="m42.11 22a2.67 2.67 0 0 0 -.62 3.13 2.64 2.64 0 0 1 -1.49 3.63 2.67 2.67 0 0 0 -1.77 2.8 2.67 2.67 0 0 1 -3 2.65 2.63 2.63 0 0 0 -2.47 1.79 2.64 2.64 0 0 1 -3.65 1.51 2.69 2.69 0 0 0 -1.65-.21c-1.63.27-1.57 1.7-3.46 1.7s-1.83-1.43-3.46-1.72a2.64 2.64 0 0 0 -1.65.21 2.64 2.64 0 0 1 -3.65-1.49 2.63 2.63 0 0 0 -2.49-1.77 2.67 2.67 0 0 1 -3-2.8 2.64 2.64 0 0 0 -1.75-2.67 2.63 2.63 0 0 1 -1.51-3.65 2.66 2.66 0 0 0 -.6-3.11 2.65 2.65 0 0 1 0-4 2.67 2.67 0 0 0 .62-3.13 2.64 2.64 0 0 1 1.49-3.63 2.67 2.67 0 0 0 1.77-2.8 2.67 2.67 0 0 1 3-2.65 2.63 2.63 0 0 0 2.47-1.79 2.65 2.65 0 0 1 2.5-1.78c1 0 1.25.53 2.31.53 2.03.02 1.95-1.75 3.95-1.75a2.66 2.66 0 0 1 2 .89 2.66 2.66 0 0 0 3.13.62 2.64 2.64 0 0 1 3.63 1.49 2.67 2.67 0 0 0 2.8 1.77 2.67 2.67 0 0 1 2.65 3 2.63 2.63 0 0 0 1.79 2.47 2.65 2.65 0 0 1 1.78 2.5c0 1-.53 1.25-.53 2.31-.02 2.03 1.75 1.95 1.75 3.95a2.66 2.66 0 0 1 -.89 2z" fill="#fc6"/><path d="m42.11 22a2.67 2.67 0 0 0 -.62 3.13 2.64 2.64 0 0 1 -1.49 3.63 2.63 2.63 0 0 0 -1.77 2.45 17.88 17.88 0 0 1 -12.23 4.79c-15.73 0-23.79-18.82-13.21-30.21a2.63 2.63 0 0 0 2.45-1.79 2.64 2.64 0 0 1 2.5-1.78c1 0 1.25.53 2.31.53 2.03.02 1.95-1.75 3.95-1.75a2.66 2.66 0 0 1 2 .89 2.66 2.66 0 0 0 3.13.62 2.64 2.64 0 0 1 3.63 1.49 2.67 2.67 0 0 0 2.8 1.77 2.67 2.67 0 0 1 2.65 3 2.63 2.63 0 0 0 1.79 2.47 2.65 2.65 0 0 1 1.78 2.5c0 1-.53 1.25-.53 2.31-.02 2.03 1.75 1.95 1.75 3.95a2.66 2.66 0 0 1 -.89 2z" fill="#ffde76"/><path d="m37 20a13 13 0 0 1 -13 13c-12.23 0-17.69-15.5-8.13-23.13a13 13 0 0 1 21.13 10.13z" fill="#ffba55"/><path d="m37 20a12.88 12.88 0 0 1 -2.87 8.13 13 13 0 0 1 -18.26-18.26 13 13 0 0 1 21.13 10.13z" fill="#fc6"/><path d="m20.54 37.28-5.61 9.72-2-4.6-4.93.6c2.34-4.07 1.22-2.12 5.06-8.77a2.64 2.64 0 0 1 2.18 1.77 2.64 2.64 0 0 0 3.38 1.63 2.83 2.83 0 0 1 1.92-.35z" fill="#db5669"/><path d="m18.62 37.61-3.69 6.39-2-4.6-3.1.37 3.2-5.54a2.64 2.64 0 0 1 2.21 1.77 2.64 2.64 0 0 0 3.38 1.61z" fill="#f26674"/><path d="m40 43-5-.6-2 4.6-5.61-9.72c1.18-.3 1.71.48 2.8.48a2.65 2.65 0 0 0 2.57-1.76 2.64 2.64 0 0 1 2.18-1.75z" fill="#db5669"/><path d="m28.94 27.22-4.94-2.6-4.94 2.6.94-5.51-4-3.9 5.53-.8 2.47-5.01 2.47 5 5.53.8-4 3.9c.46 2.69.25 1.48.94 5.52z" fill="#f16f39"/><path d="m28 21.71.37 2.16a7 7 0 0 1 -8.37-6.64l1.53-.23 2.47-5 2.47 5 5.53.8z" fill="#f8834b"/><path d="m29.38 37.61 3.69 6.39 2-4.6 3.1.37-3.2-5.54a2.64 2.64 0 0 0 -2.21 1.77 2.64 2.64 0 0 1 -3.38 1.61z" fill="#f26674"/></svg>